# xmcd
#
# Track frame offsets:
# 150
# 29644
# 55618
# 86535
# 107429
# 125083
# 137421
# 156678
# 181702
# 205467
# 237528
# 252974
# 287486
# 301875
#
# Disc length: 4361 seconds
#
#
# Revision: 8
# Processed by: cddbd v1.5.2PL0 Copyright (c) Steve Scherf et al.
# Submitted via: FreeRIP 2.945 
#
DISCID=c311070e
DTITLE=Los Jaivas - Obras Cumbres 2
DYEAR=2001
DGENRE=Folk/Rock
TTITLE0=Foto De Primera Comunion
TTITLE1=Todos Juntos
TTITLE2=Mira Niñita
TTITLE3=La Quebra Del Aji
TTITLE4=Tema De Los Titulos
TTITLE5=Donde Estabas Tu
TTITLE6=La Centinela
TTITLE7=Ta Bom Ta Que Ta
TTITLE8=Pregon Para Iluminarse
TTITLE9=La Conquistada
TTITLE10=La Vida Magica ¡Ay Si!
TTITLE11=La Cancion Del Sur
TTITLE12=Frescura Antigua
TTITLE13=Antigua America
EXTD=
EXTT0=
EXTT1=
EXTT2=
EXTT3=
EXTT4=
EXTT5=
EXTT6=
EXTT7=
EXTT8=
EXTT9=
EXTT10=
EXTT11=
EXTT12=
EXTT13=
PLAYORDER=
